<?xml version="1.0" standalone="no"?>
<!DOCTYPE svg PUBLIC "-//W3C//DTD SVG 1.1//EN" "http://www.w3.org/Graphics/SVG/1.1/DTD/svg11.dtd">
<svg xmlns="http://www.w3.org/2000/svg">
<metadata>Generated by Fontastic.me</metadata>
<defs>
<font id="mealplanner" horiz-adv-x="512">
<font-face font-family="mealplanner" units-per-em="512" ascent="480" descent="-32"/>
<missing-glyph horiz-adv-x="512" />

<glyph glyph-name="back" unicode="&#97;" d="M114 269l216 218c4 3 8 5 13 5 4 0 8-2 12-5l30-29c3-4 4-8 4-13 0-5-1-9-4-12l-176-177 176-177c3-3 4-7 4-12 0-5-1-9-4-13l-30-28c-4-4-8-6-12-6-5 0-9 2-13 5l-216 219c-3 3-5 7-5 12 0 5 2 9 5 13z"/>
<glyph glyph-name="file" unicode="&#99;" d="M280 370c0-6 2-11 7-16 4-4 10-7 16-7l130 0 0-312c0-6-3-12-7-16-5-5-10-7-16-7l-320 0c-7 0-12 2-16 7-5 4-7 10-7 16l0 442c0 6 2 12 7 16 4 5 9 7 16 7l190 0z m61-224l0 7c0 3-1 6-3 8-2 2-5 4-8 4l-160 0c-3 0-6-2-8-4-3-2-4-5-4-8l0-7c0-4 1-6 4-9 2-2 5-3 8-3l160 0c3 0 6 1 8 3 2 3 3 5 3 9z m0 60l0 8c0 3-1 6-3 8-2 2-5 4-8 4l-160 0c-3 0-6-2-8-4-3-2-4-5-4-8l0-8c0-3 1-5 4-8 2-2 5-3 8-3l160 0c3 0 6 1 8 3 2 3 3 5 3 8z m0 69c0 3-1 6-3 8-2 2-5 3-8 3l-160 0c-3 0-6-1-8-3-3-2-4-5-4-8l0-8c0-3 1-5 4-8 2-2 5-3 8-3l160 0c3 0 6 1 8 3 2 3 3 5 3 8z m92 103l-122 0 0 122 5 0c7 0 12-2 17-7l93-93c4-5 7-10 7-16z"/>
<glyph glyph-name="fire" unicode="&#100;" d="M267 461c0-18 6-36 19-54 8-11 22-27 44-47 20-19 35-33 44-44 16-18 28-36 36-55 9-24 14-50 14-77 0-33-8-63-24-90-17-28-38-49-66-66-27-16-57-24-90-24-32 0-62 8-90 24-27 17-49 38-66 66-16 27-24 57-24 90 0 26 5 50 16 74 9 20 21 38 36 53 4 5 9 7 16 7 6-1 11-3 15-7 5-4 7-10 7-16l0-80c0-17 6-31 17-43 12-12 26-18 43-18 16 0 30 6 42 17 12 12 18 26 18 43 0 13-4 26-13 37-5 8-14 19-28 32-18 18-31 32-37 43-10 17-14 36-11 58 3 26 17 56 40 90 4 6 9 9 16 10 7 1 13-1 18-5 5-4 8-10 8-18z"/>
<glyph glyph-name="shield" unicode="&#101;" d="M463 420l-1 0c9-3 16-9 21-16 5-8 7-17 7-26 0-65-12-125-36-180-21-46-49-86-84-120-29-29-59-49-91-62-11-5-23-5-34 0-36 15-70 38-100 70-34 35-60 76-79 123-22 53-33 109-33 169 0 9 3 18 8 26 5 7 12 13 21 16l183 76c11 5 23 5 35 0z"/>
<glyph glyph-name="start" unicode="&#102;" d="M224 472c3 8 9 12 16 15 6 2 13 2 20 0 7-3 13-7 16-15l59-120 133-19c8-1 14-5 19-11 4-6 6-12 6-20 0-7-3-13-8-19l-97-93 23-133c1-7 0-14-4-21-4-6-10-10-17-12-7-2-14-1-21 3l-119 62-119-62c-7-4-14-5-21-3-7 2-13 6-17 12-4 7-5 14-4 21l23 133-97 93c-5 6-8 12-8 19-1 8 2 14 6 20 5 6 11 10 19 11l133 19z"/>
<glyph glyph-name="user" unicode="&#103;" d="M253 220c-25 0-48 6-69 18-21 13-38 30-50 51-12 21-19 44-19 69 0 24 7 47 19 68 12 21 29 38 50 51 21 12 44 18 69 18 25 0 48-6 69-18 21-13 38-30 50-51 13-21 19-44 19-68 0-25-6-48-19-69-12-21-29-38-50-51-21-12-44-18-69-18z m122-31c23 0 43-5 62-16 19-11 34-26 45-45 11-18 16-39 16-61l0-16c0-12-5-23-13-32-9-9-20-13-33-13l-398 0c-13 0-23 4-32 13-9 9-14 20-14 32l0 16c0 22 6 43 16 61 11 19 26 34 45 45 19 11 39 16 62 16l52 0c23-10 46-15 70-15 24 0 48 5 70 15z"/>
<glyph glyph-name="google" unicode="&#104;" d="M256 205c0 0 98 0 138 0-22-65-56-101-138-101-84 0-150 68-150 152 0 84 66 152 150 152 44 0 72-16 99-37 21 21 19 24 73 74-46 42-106 67-172 67-142 0-256-115-256-256 0-141 114-256 256-256 210 0 262 184 245 307l-245 0z"/>
<glyph glyph-name="calendar" unicode="&#105;" d="M456 342l-406 0c-3 0-6 1-8 4-2 2-3 5-3 8l0 34c0 13 4 24 13 33 9 9 20 13 33 13l46 0 0 50c0 3 1 6 3 8 2 2 5 3 8 3l38 0c4 0 6-1 8-3 3-2 4-5 4-8l0-50 122 0 0 50c0 3 1 6 4 8 2 2 5 3 8 3l38 0c3 0 6-1 8-3 2-2 3-5 3-8l0-50 46 0c13 0 24-4 33-13 9-9 13-20 13-33l0-34c0-3-1-6-3-8-2-3-5-4-8-4z m-406-30l406 0c3 0 6-1 8-4 2-2 3-5 3-8l0-249c0-12-4-23-13-32-9-9-20-13-33-13l-336 0c-13 0-24 4-33 13-9 9-13 20-13 32l0 249c0 3 1 6 3 8 2 3 5 4 8 4z m111-195c0 3-1 5-3 8-2 2-5 3-8 3l-39 0c-3 0-5-1-8-3-2-3-3-5-3-8l0-39c0-3 1-6 3-8 3-2 5-3 8-3l39 0c3 0 6 1 8 3 2 2 3 5 3 8z m0 122c0 3-1 6-3 8-2 2-5 3-8 3l-39 0c-3 0-5-1-8-3-2-2-3-5-3-8l0-38c0-3 1-6 3-8 3-3 5-4 8-4l39 0c3 0 6 1 8 4 2 2 3 5 3 8z m123-122c0 3-1 5-4 8-2 2-5 3-8 3l-38 0c-3 0-6-1-8-3-2-3-4-5-4-8l0-39c0-3 2-6 4-8 2-2 5-3 8-3l38 0c3 0 6 1 8 3 3 2 4 5 4 8z m0 122c0 3-1 6-4 8-2 2-5 3-8 3l-38 0c-3 0-6-1-8-3-2-2-4-5-4-8l0-38c0-3 2-6 4-8 2-3 5-4 8-4l38 0c3 0 6 1 8 4 3 2 4 5 4 8z m122-122c0 3-1 5-3 8-2 2-5 3-8 3l-39 0c-3 0-6-1-8-3-2-3-3-5-3-8l0-39c0-3 1-6 3-8 2-2 5-3 8-3l39 0c3 0 6 1 8 3 2 2 3 5 3 8z m0 122c0 3-1 6-3 8-2 2-5 3-8 3l-39 0c-3 0-6-1-8-3-2-2-3-5-3-8l0-38c0-3 1-6 3-8 2-3 5-4 8-4l39 0c3 0 6 1 8 4 2 2 3 5 3 8z"/>
<glyph glyph-name="heart" unicode="&#106;" d="M462 449c21-17 35-39 43-64 8-25 9-51 4-77-6-25-18-47-37-66l-193-200c-7-7-14-10-23-10-9 0-16 3-23 10l-193 199c-19 19-31 42-36 67-6 26-5 52 3 77 8 25 22 47 43 64 18 15 38 25 61 29 23 4 45 2 67-5 22-7 41-20 58-37l20-20 20 20c17 17 36 30 58 37 22 7 44 9 67 5 23-4 43-14 61-29z"/>
<glyph glyph-name="camera" unicode="&#107;" d="M343 368l-24 64-126 0-24-64-121 0 0-288 416 0 0 288z m-19 112c9 0 16-2 23-7 7-5 12-11 15-19l14-38 88 0c13 0 25-5 34-14 9-9 14-21 14-34l0-288c0-13-5-25-14-34-9-9-21-14-34-14l-416 0c-13 0-25 5-34 14-9 9-14 21-14 34l0 288c0 13 5 25 14 34 9 9 21 14 34 14l88 0 12 33c4 9 10 17 18 22 8 6 17 9 27 9z m-68-376c-22 0-42 5-60 16-19 11-33 25-44 43-11 19-16 39-16 61 0 22 5 42 16 60 11 19 25 33 44 44 18 11 38 16 60 16 22 0 42-5 61-16 18-11 32-25 43-44 11-18 16-38 16-60 0-22-5-42-16-61-11-18-25-32-43-43-19-11-39-16-61-16z m0 192c-20 0-37-7-51-21-14-14-21-31-21-51 0-20 7-37 21-51 14-14 31-21 51-21 20 0 37 7 51 21 14 14 21 31 21 51 0 20-7 37-21 51-14 14-31 21-51 21z"/>
<glyph glyph-name="check" unicode="&#108;" d="M59 276l-59-59 158-158 354 335-59 59-295-276z"/>
<glyph glyph-name="knife" unicode="&#109;" d="M250 486c10-61 15-102 15-123 0-24-6-45-18-63-11-17-27-30-48-37l13-227c0-6-2-12-7-17-4-4-10-7-16-7l-61 0c-7 0-12 3-17 7-5 5-7 11-6 17l12 227c-20 7-36 20-48 37-12 18-17 39-17 63 0 21 5 62 15 123 1 5 5 9 12 12 7 2 14 2 22 0 7-3 11-7 12-13l0-135c0-2 3-3 7-3 5 0 7 1 8 2l7 136c2 6 6 10 13 13 7 2 14 2 21 0 7-3 11-7 12-13l8-136c0-1 3-2 7-2 5 0 7 1 8 3l0 135c1 6 5 10 12 13 7 2 14 2 21 0 7-3 11-7 13-12z m113-273c-35 27-56 59-64 94-7 31-4 62 10 93 12 28 29 52 52 71 22 19 44 29 64 29 6 0 12-2 16-7 5-4 7-10 7-16l0-442c0-6-2-12-7-16-4-5-10-7-16-7l-53 0c-7 0-13 3-18 8-4 5-6 11-5 17z"/>
<glyph glyph-name="love" unicode="&#110;" d="M440 440c23-20 38-43 47-71 7-25 7-50 0-76-7-26-19-48-37-66l-168-171c-10-10-22-15-36-15-14 0-26 5-37 15l-168 171c-17 18-29 40-36 66-7 26-7 51 1 76 7 28 23 51 46 71 18 16 39 25 62 29 24 4 47 2 71-6 23-7 43-20 61-37 17 17 37 30 61 37 23 8 47 10 70 6 24-4 45-13 63-29z m-22-180c11 12 19 27 24 44 5 18 5 36 0 53-6 18-16 34-32 48-19 15-41 22-66 20-25-2-47-12-65-31l-33-33-34 33c-18 19-39 29-65 31-25 2-47-5-65-20-16-14-27-30-32-48-5-17-5-35-1-53 5-17 13-32 25-44l169-171c2-3 4-3 6 0z"/>
<glyph glyph-name="close" unicode="&#112;" d="M329 256l158-159c5-4 7-9 7-16 0-7-2-13-7-17l-37-36c-4-5-9-8-16-8-7 0-13 3-17 8l-159 157-159-157c-4-5-9-8-16-8-7 0-12 3-16 8l-37 36c-5 4-7 10-7 17 0 7 2 12 7 16l158 159-158 159c-5 4-7 9-7 16 0 7 2 13 7 17l37 36c4 5 9 8 16 8 7 0 12-3 16-8l159-157 159 157c4 5 10 8 17 8 7 0 12-3 16-8l37-36c5-4 7-10 7-17 0-7-2-12-7-16z"/>
<glyph glyph-name="love-fill" unicode="&#113;" d="M440 440c23-20 38-43 47-71 7-25 7-50 0-76-7-26-19-48-37-66l-168-171c-10-10-22-15-36-15-14 0-26 5-37 15l-168 171c-17 18-29 40-36 66-7 26-7 51 1 76 7 28 23 51 46 71 18 16 39 25 62 29 24 4 47 2 71-6 23-7 43-20 61-37 17 17 37 30 61 37 23 8 47 10 70 6 24-4 45-13 63-29z"/>
<glyph glyph-name="password" unicode="&#114;" d="M409 274c12 0 23-4 32-13 8-9 13-20 13-32l0-180c0-13-5-23-13-32-9-9-20-13-32-13l-330 0c-13 0-23 4-32 13-9 9-13 19-13 32l0 180c0 12 4 23 13 32 9 9 19 13 32 13l22 0 0 67c0 26 7 50 20 72 12 22 30 39 52 52 21 13 45 19 71 19 25 0 49-6 71-19 22-13 39-30 52-52 13-22 19-46 19-72l0-67z m-98 0l0 67c0 19-6 35-19 48-13 13-29 20-48 20-19 0-35-7-48-20-13-13-20-29-20-48l0-67z"/>
<glyph glyph-name="crown" unicode="&#115;" d="M411 108c3 0 6-1 9-3 2-2 3-5 3-9l0-25c0-3-1-6-3-8-3-3-6-4-9-4l-320 0c-4 0-7 1-9 4-2 2-3 5-3 8l0 25c0 4 1 7 3 9 2 2 5 3 9 3z m49 246c10 0 19-3 26-10 7-7 11-16 11-26 0-11-4-19-11-27-7-7-16-10-26-10l-6 0-55-148-296 0-55 148-6 0c-11 0-19 3-26 10-8 8-11 16-11 27 0 10 3 19 11 26 7 7 15 10 26 10 10 0 19-3 26-10 7-7 11-16 11-26 0-6-1-11-3-16l55-33c6-4 12-4 19-3 7 2 12 6 15 12l63 110c-9 7-14 17-14 28 0 10 4 19 11 26 7 7 16 11 26 11 10 0 19-4 26-11 7-7 11-16 11-26 0-11-5-21-14-28l63-110c3-6 8-10 15-12 6-1 13-1 19 3l55 33c-2 5-3 10-3 16 0 10 4 19 11 26 7 7 16 10 26 10z"/>
<glyph glyph-name="default-avatar" unicode="&#116;" d="M196 483c20 0 38-7 54-19 7-5 12-6 21 0 40 27 80 26 110-3 31-31 35-78 12-118-10-17-24-30-38-43-27-26-55-50-83-76-8-7-13-9-22-1-33 31-67 61-99 92-29 28-45 63-34 106 10 37 42 62 79 62z m13-28c-19 1-49-19-56-36-1-4-3-8 1-10 6-4 8 2 10 5 10 18 25 27 45 30 4 0 10 0 9 6-1 5-5 5-9 5z m180-244c36 19 72 37 108 56 1-2 2-4 3-5-34-22-68-43-103-65 1-2 2-3 3-5 36 19 73 37 109 56 1-2 2-4 3-6-39-25-72-58-116-76-15-6-32-10-48-4-16 5-28 0-41-9-53-37-105-76-160-111-7-4-15-9-23-11-16-5-31-2-39 13-8 14-4 28 7 39 8 8 18 12 27 17 29 14 59 27 89 42-18 15-34 28-60 16-15-7-32-5-48 1-39 14-71 36-91 73-21 36-4 65 38 65 44 0 82-16 114-46 14-13 21-30 24-49 1-10 6-15 14-19 52-26 61-25 111 4 6 3 9 7 10 13 8 28 27 47 53 59 32 16 65 29 97 44 3 1 5 1 9-3-35-22-69-44-104-65 1-2 2-3 3-5 36 19 72 37 108 56 1-2 2-4 3-5-34-22-68-43-102-65 1-2 1-3 2-5z m28-155c0-19-21-32-43-26-13 4-24 12-35 19-16 10-31 20-46 31-10 8-30 15-27 22 5 14 24 20 37 30 3 2 7 0 10-2 27-13 55-25 81-39 14-7 23-18 23-35z"/>
<glyph glyph-name="plus" unicode="&#117;" d="M490 288c6 0 11-2 15-6 4-4 6-9 6-15l0-41c0-6-2-11-6-15-4-3-9-5-15-5l-185 0 0-185c0-6-2-11-6-15-4-4-9-6-15-6l-41 0c-6 0-11 2-15 6-3 4-5 9-5 15l0 185-185 0c-6 0-11 2-15 5-4 4-6 9-6 15l0 41c0 6 2 11 6 15 4 4 9 6 15 6l185 0 0 185c0 6 2 11 5 15 4 4 9 6 15 6l41 0c6 0 11-2 15-6 4-4 6-9 6-15l0-185z"/>
<glyph glyph-name="remove" unicode="&#118;" d="M43 429l0 27c0 6 2 11 6 16 5 4 10 6 16 6l106 0 9 18c2 4 4 7 8 9 4 2 8 3 12 3l108 0c4 0 9-1 12-3 4-2 7-5 9-9l8-18 106 0c6 0 12-2 16-6 5-5 7-10 7-16l0-27c0-3-1-6-4-8-2-2-4-3-8-3l-400 0c-3 0-6 1-8 3-2 2-3 5-3 8z m392-54l-19-308c-1-12-6-22-14-30-9-8-20-12-32-12l-232 0c-12 0-22 4-31 12-9 8-14 18-14 30l-19 308c0 3 1 6 3 9 2 2 5 4 8 4l338 0c3 0 6-2 8-4 3-3 4-6 4-9z"/>
<glyph glyph-name="dish" unicode="&#119;" d="M258 272l40 37c-9 15-12 31-10 47 2 16 10 31 24 45 12 11 39 32 83 63l1 1c4 3 9 3 14 1 4-2 8-5 9-10 2-5 1-9-2-13l-69-79c0-1 0-2 1-3 1-2 2-2 3-2l82 67c4 4 9 4 14 2 4-2 8-5 10-10 2-5 1-9-2-14l-67-81c-1-1 0-2 1-3 1-2 2-2 3-1l80 68c3 4 7 5 12 3 5-2 9-5 11-10 2-5 1-9-1-14-8-9-17-21-27-35-18-25-30-40-38-48-14-14-29-22-45-24-16-3-32 1-47 10l-35-39 131-121c6-6 9-12 9-20 0-8-3-14-8-20l-27-26c-5-6-12-9-20-9-7 0-14 3-19 9l-177 208c-64 0-111 18-142 53-27 31-40 76-40 137 0 7 2 13 7 18 5 5 12 8 19 9 7 0 14-2 19-8z m-187-203c-5 6-7 13-7 20 0 8 3 15 9 20l117 103 48-57-100-111c-5-6-11-10-19-10-8 0-15 3-20 8z"/>
<glyph glyph-name="edit" unicode="&#120;" d="M412 301c3-2 4-5 4-8 0-3-1-6-4-9l-271-271-114-13c-8-1-15 2-20 7-5 5-8 12-7 20l13 114 271 271c3 3 6 4 9 4 3 0 6-1 8-4z m86 137c9-9 14-21 14-34 0-13-5-25-14-34l-46-46c-3-3-6-4-9-4-3 0-6 1-8 4l-111 111c-3 2-4 5-4 8 0 3 1 6 4 9l46 46c9 9 21 14 34 14 13 0 25-5 34-14z"/>
<glyph glyph-name="search" unicode="&#121;" d="M509 43c2-2 3-5 3-8 0-3-1-6-3-9l-23-22c-3-3-6-4-9-4-3 0-6 1-8 4l-122 121c-2 3-3 5-3 8l0 14c-19-16-40-29-63-38-23-9-48-13-73-13-38 0-73 9-104 28-32 19-57 44-76 75-19 32-28 67-28 105 0 38 9 73 28 104 19 32 44 57 76 76 31 19 66 28 104 28 38 0 73-9 105-28 31-19 56-44 75-76 19-31 28-66 28-104 0-25-4-50-13-73-9-23-22-44-38-63l14 0c3 0 6-1 8-3z m-301 101c29 0 55 7 80 21 25 15 44 34 59 59 14 25 21 51 21 80 0 29-7 55-21 80-15 25-34 44-59 58-25 15-51 22-80 22-29 0-55-7-80-22-25-14-44-33-58-58-15-25-22-51-22-80 0-29 7-55 22-80 14-25 33-44 58-59 25-14 51-21 80-21z"/>
<glyph glyph-name="setting" unicode="&#122;" d="M457 275c1-13 1-25 0-38l31-18c5-3 8-7 11-12 2-5 2-10 1-15-12-43-34-80-65-111-3-4-8-6-13-7-5-1-11 0-16 3l-31 18c-11-7-22-14-33-19l0-36c0-6-2-11-5-16-3-4-8-7-13-8-43-11-85-11-128 0-5 1-10 4-13 8-3 5-5 10-5 16l0 36c-11 5-22 12-33 19l-31-18c-5-3-11-4-16-3-5 1-10 3-13 7-31 31-53 68-65 111-1 5-1 10 2 15 2 5 5 9 10 12l31 18c-1 13-1 25 0 38l-31 18c-5 3-8 7-10 12-3 5-3 10-2 15 12 43 34 80 65 111 3 4 8 6 13 7 5 1 11 0 16-3l31-18c11 7 22 14 33 19l0 36c0 6 2 11 5 15 3 5 8 8 13 9 43 11 85 11 128 0 5-1 10-4 13-9 3-4 5-9 5-15l0-36c11-5 22-12 33-19l31 18c5 3 11 4 16 3 5-1 10-3 13-7 31-31 53-68 65-111 1-5 1-10-1-15-3-5-6-9-11-12z m-53-63c4 21 6 35 6 44 0 9-2 23-6 44l44 25c-8 21-19 41-34 59l-44-25c-16 13-28 22-35 26-8 5-22 11-41 18l0 50c-23 4-45 4-68 0l0-50c-19-7-33-13-40-18-8-4-20-13-36-26l-44 25c-15-18-26-38-34-59l44-25c-4-21-6-35-6-44 0-9 2-23 6-44l-44-25c8-21 19-41 34-59l44 25c16-13 28-22 36-27 7-4 21-10 40-17l0-50c23-4 45-4 68 0l0 50c19 7 33 13 41 17 7 5 19 14 35 27l44-25c15 18 26 38 34 59z m-144 140c27 0 49-9 68-28 19-19 28-41 28-68 0-27-9-49-28-68-19-19-41-28-68-28-27 0-49 9-68 28-19 19-28 41-28 68 0 27 9 49 28 68 19 19 41 28 68 28z m0-144c13 0 25 5 34 14 9 9 14 21 14 34 0 13-5 25-14 34-9 9-21 14-34 14-13 0-25-5-34-14-9-9-14-21-14-34 0-13 5-25 14-34 9-9 21-14 34-14z"/>
<glyph glyph-name="email" unicode="&#65;" d="M474 305c2 2 4 2 7 1 2-1 3-3 3-6l0-191c0-13-5-23-13-32-9-9-20-13-32-13l-390 0c-13 0-23 4-32 13-9 9-13 19-13 32l0 191c0 3 1 4 3 5 2 1 4 1 6 0 21-16 69-51 145-106l9-8c15-12 27-20 36-25 15-8 28-12 41-12 12 0 26 4 41 13 9 5 21 13 36 24l9 8c74 53 122 88 144 106z m-230-121c-8 0-18 4-30 11-7 4-17 11-29 21l-10 6c-76 57-129 95-156 117l-7 4c-5 5-8 11-8 18l0 18c0 12 4 23 13 32 9 9 19 13 32 13l390 0c12 0 23-4 32-13 8-9 13-20 13-32l0-18c0-7-3-13-9-18l-4-3c-27-22-80-61-159-118l-9-6c-13-10-22-17-29-21-12-7-22-11-30-11z"/>
<glyph glyph-name="facebook" unicode="&#66;" d="M306 415l66 0 0 97-78 0 0 0c-94-4-113-57-115-112l0 0 0-49-64 0 0-95 64 0 0-256 97 0 0 256 79 0 15 95-94 0 0 30c0 18 12 34 30 34z"/>
<glyph glyph-name="share" unicode="&#67;" d="M456 56l0-34c0-6-5-11-11-11l-389 0c-6 0-11 5-11 11l0 301c0 6 5 11 11 11l78 0c6 0 11-5 11-11l0-34c0-6-5-11-11-11l-34 0 0-211 301 0 0 211-34 0c-6 0-11 5-11 11l0 34c0 6 5 11 11 11l78 0c6 0 11-5 11-11z m-94 349c4-4 4-8 2-14-2-5-6-7-11-7l-74 0 0-222c0-3-1-6-4-9-2-2-5-3-9-3l-33 0c-4 0-7 1-9 3-2 3-4 6-4 9l0 222-74 0c-5 0-9 2-11 7-2 6-2 10 2 14l104 104c2 2 5 3 9 3 3 0 6-1 8-3z"/>
<glyph glyph-name="check-calendar" unicode="&#98;" d="M418 439c12 0 23-5 32-13 9-9 13-20 13-33l0-335c0-13-4-24-13-32-9-9-20-14-32-14l-336 0c-12 0-23 5-32 14-9 8-13 19-13 32l0 335c0 13 4 24 13 33 9 8 20 13 32 13l46 0 0 49c0 4 1 6 3 8 3 3 5 4 8 4l39 0c3 0 5-1 8-4 2-2 3-4 3-8l0-49 122 0 0 49c0 4 1 6 3 8 2 3 5 4 8 4l38 0c4 0 6-1 8-4 3-2 4-4 4-8l0-49z m-6-381c1 0 2 1 4 2 1 1 2 2 2 4l0 283-336 0 0-283c0-2 1-3 2-4 1-1 3-2 4-2z m-203 74l-72 71c-2 2-3 5-3 8 0 3 1 6 3 8l16 15c2 3 4 4 7 4 3 0 6-1 8-4l48-48 103 103c3 2 5 4 8 4 3 0 6-2 8-4l16-15c2-2 3-5 3-8 0-3-1-6-3-8l-127-126c-2-2-4-3-8-3-3 0-5 1-7 3z"/>
<glyph glyph-name="foward" unicode="&#111;" d="M385 243l-217-218c-4-3-8-5-12-5-5 0-9 2-13 5l-29 29c-3 4-5 8-5 13 0 5 2 9 5 12l175 177-175 177c-3 3-5 7-5 12 0 5 2 9 5 13l29 28c4 4 8 6 13 6 4 0 8-2 12-5l217-219c3-3 4-7 4-12 0-5-1-9-4-13z"/>
<glyph glyph-name="add-calendar" unicode="&#68;" d="M418 439c12 0 23-5 32-13 9-9 13-20 13-33l0-335c0-13-4-24-13-32-9-9-20-14-32-14l-336 0c-12 0-23 5-32 14-9 8-13 19-13 32l0 335c0 13 4 24 13 33 9 8 20 13 32 13l46 0 0 49c0 4 1 6 3 8 3 3 5 4 8 4l39 0c3 0 5-1 8-4 2-2 3-4 3-8l0-49 122 0 0 49c0 4 1 6 3 8 2 3 5 4 8 4l38 0c4 0 6-1 8-4 3-2 4-4 4-8l0-49z m-138-207l61 0 0-49-61 0 0-61-48 0 0 61-61 0 0 49 61 0 0 61 48 0z m132-174c1 0 2 1 4 2 1 1 2 2 2 4l0 283-336 0 0-283c0-2 1-3 2-4 1-1 3-2 4-2z"/>
</font>
</defs>
</svg>
